<?xml version="1.0" standalone="no"?>
<!DOCTYPE svg PUBLIC "-//W3C//DTD SVG 20010904//EN"
 "http://www.w3.org/TR/2001/REC-SVG-20010904/DTD/svg10.dtd">
<svg version="1.0" xmlns="http://www.w3.org/2000/svg"
 width="512.000000pt" height="512.000000pt" viewBox="0 0 512.000000 512.000000"
 preserveAspectRatio="xMidYMid meet">
<metadata>
Created by potrace 1.11, written by Peter Selinger 2001-2013
</metadata>
<g transform="translate(0.000000,512.000000) scale(0.100000,-0.100000)"
fill="#000000" stroke="none">
<path d="M4542 5105 c-170 -30 -335 -101 -466 -199 -39 -30 -324 -306 -632
-614 l-560 -560 -314 135 c-173 74 -434 186 -580 248 -658 281 -1277 547
-1303 560 l-28 14 -213 -212 c-199 -198 -213 -214 -196 -227 10 -8 58 -45 107
-82 48 -37 165 -127 258 -198 94 -72 181 -139 194 -148 13 -9 28 -21 35 -27 6
-5 67 -53 136 -105 69 -51 127 -96 130 -100 3 -3 59 -45 125 -95 66 -49 122
-92 125 -95 6 -6 67 -53 255 -195 123 -93 227 -173 357 -274 32 -24 58 -46 58
-49 0 -2 -218 -222 -484 -489 l-484 -484 -318 106 c-174 58 -318 104 -320 103
-2 -2 -98 -97 -213 -212 l-211 -209 158 -95 c86 -52 173 -104 193 -116 20 -11
187 -111 371 -221 l335 -200 144 -239 c79 -131 154 -255 165 -275 12 -20 91
-152 176 -293 l155 -257 209 210 c115 115 210 211 212 213 1 1 -46 145 -104
320 l-105 317 484 485 c267 266 487 484 490 484 3 0 45 -53 94 -117 48 -65 90
-120 93 -123 8 -7 161 -205 185 -240 24 -34 386 -508 400 -524 6 -6 29 -36 51
-66 59 -78 381 -500 405 -530 11 -14 48 -62 82 -107 34 -46 66 -83 70 -83 4 0
101 93 216 208 l208 207 -477 1115 -478 1114 545 546 c529 528 619 623 668
699 54 86 117 222 130 281 2 8 11 47 20 85 31 125 26 354 -9 490 -22 83 -22
84 -106 101 -14 3 -45 10 -70 16 -67 16 -284 18 -368 3z"/>
<path d="M2160 4866 c-20 -6 -51 -21 -70 -33 -34 -21 -302 -283 -304 -297 -1
-3 131 -63 293 -132 l294 -126 60 64 c95 100 128 195 105 303 -19 89 -84 169
-168 208 -52 24 -157 30 -210 13z"/>
<path d="M4505 2536 c-66 -21 -101 -43 -165 -106 -52 -51 -59 -62 -51 -82 50
-126 240 -559 246 -560 13 -2 275 263 300 302 48 77 55 201 16 282 -61 128
-219 202 -346 164z"/>
</g>
</svg>
